<svg width="133" height="36" viewBox="0 0 133 36" fill="none" xmlns="http://www.w3.org/2000/svg">
<path d="M132.248 0.651367L132.707 7.38337L128.882 7.79137L128.168 1.00837L132.248 0.651367ZM126.893 1.21237L127.607 7.89337L123.68 8.45437L122.507 1.82437L126.893 1.21237ZM130.82 10.3924L130.922 15.9514H121.742L121.946 18.2974H128.627V23.7034H122.405L122.609 25.8454L117.152 26.6614L116.795 23.7034H105.269V18.2974H116.183L115.877 16.0024H104.657L104.555 10.4434H115.214L114.857 7.17937L120.875 6.51637L121.232 10.3924H130.82ZM108.38 31.2514L111.185 26.1004C114.653 28.1914 119.6 29.7724 123.272 30.3334L121.487 35.7394C116.081 35.0254 113.072 34.2094 108.38 31.2514Z" fill="#333333"/>
<path d="M87.8361 6.79026L87.3161 10.7423C92.4121 11.6263 94.7521 15.0063 94.7521 18.5423C94.7521 23.0663 90.9561 27.7983 84.2481 27.7983C83.6761 27.7983 83.0521 27.7983 82.3761 27.6943V22.5983C86.7441 22.8063 89.0321 20.9343 89.0321 19.1663C89.0321 18.0223 88.2001 16.9823 86.5361 16.5143L86.0161 20.2583L80.6081 19.7383L80.8681 16.5663L77.8521 17.0863L80.3481 34.5583L74.0561 35.3383L71.4561 18.1263L66.6721 18.9583L65.5801 13.3943L70.6241 12.5623L69.7921 6.89426L76.3441 6.21826L77.0721 11.4703L81.3361 10.7943H81.3881L81.7521 6.37426L87.8361 6.79026Z" fill="#333333"/>
<path d="M41.7357 35.4944C39.4477 35.4944 37.3157 34.9744 35.5477 34.1424L37.1077 29.1504C38.7197 29.6704 39.8637 29.9304 41.7877 30.0864C42.3077 30.1384 42.8277 30.1384 43.2957 30.1384C47.5597 30.1384 49.4837 28.5264 49.4837 26.9664C49.4837 25.4064 47.6117 23.8984 44.2837 23.8984C41.6837 23.8984 38.1997 24.8344 33.9357 27.3304L30.9717 22.0264L44.2317 14.1744L32.6357 14.2784L32.5317 8.71435L53.9037 8.61035L53.7477 15.2144L46.3637 18.9064C46.6757 18.9064 47.0397 18.8544 47.3517 18.8544C52.8637 18.8544 56.2957 22.7024 56.2957 26.7584C56.2957 31.2304 52.0317 35.8584 41.7357 35.4944Z" fill="#333333"/>
<path d="M17.7832 31.7411L12.0592 35.8221L0.240234 20.7171L11.3702 5.45312L18.3662 10.0641L9.40924 21.0351L17.7832 31.7411Z" fill="#333333"/>
</svg>
