<svg width="1426" height="118" viewBox="0 0 1426 118" fill="none" xmlns="http://www.w3.org/2000/svg">
<path d="M1398.44 117.384C1390.34 117.384 1383.84 114.851 1378.92 109.785C1374.05 104.719 1371.62 98.0639 1371.62 89.8192V28.4312C1371.62 20.1369 1374.05 13.4815 1378.92 8.46521C1383.84 3.39921 1390.34 0.866211 1398.44 0.866211C1406.58 0.866211 1413.09 3.39921 1417.96 8.46521C1422.83 13.4815 1425.26 20.1369 1425.26 28.4312V32.9012H1411.1V28.4312C1411.1 24.4082 1409.96 21.1799 1407.68 18.7462C1405.39 16.2629 1402.31 15.0212 1398.44 15.0212C1394.57 15.0212 1391.49 16.2629 1389.2 18.7462C1386.92 21.1799 1385.77 24.4082 1385.77 28.4312V89.8192C1385.77 93.8422 1386.92 97.0954 1389.2 99.5787C1391.49 102.012 1394.57 103.229 1398.44 103.229C1402.31 103.229 1405.39 102.012 1407.68 99.5787C1409.96 97.0954 1411.1 93.8422 1411.1 89.8192V74.7702H1397.99V60.6152H1425.26V89.8192C1425.26 98.0639 1422.83 104.719 1417.96 109.785C1413.09 114.851 1406.58 117.384 1398.44 117.384Z" fill="#EFEFEF"/>
<path d="M1295.7 115V3.25H1307.25L1339.06 88.1055L1335.19 88.4035V3.25H1348.6V115H1337.05L1305.24 30.1445L1309.11 29.8465V115H1295.7Z" fill="#EFEFEF"/>
<path d="M1271.01 115H1256.85V3.25H1271.01V115Z" fill="#EFEFEF"/>
<path d="M1180.75 115V3.25H1194.91V59.87H1218V3.25H1232.16V115H1218V74.025H1194.91V115H1180.75Z" fill="#EFEFEF"/>
<path d="M1162.18 85.3492V89.8192C1162.18 98.0639 1159.75 104.719 1154.88 109.785C1150.01 114.851 1143.51 117.384 1135.36 117.384C1127.27 117.384 1120.76 114.851 1115.84 109.785C1110.97 104.719 1108.54 98.0639 1108.54 89.8192V28.4312C1108.54 20.1369 1110.97 13.4815 1115.84 8.46521C1120.76 3.39921 1127.27 0.866211 1135.36 0.866211C1143.51 0.866211 1150.01 3.39921 1154.88 8.46521C1159.75 13.4815 1162.18 20.1369 1162.18 28.4312V32.9012H1148.03V28.4312C1148.03 24.4082 1146.88 21.1799 1144.6 18.7462C1142.31 16.2629 1139.23 15.0212 1135.36 15.0212C1131.49 15.0212 1128.41 16.2629 1126.12 18.7462C1123.84 21.1799 1122.7 24.4082 1122.7 28.4312V89.8192C1122.7 93.8422 1123.84 97.0954 1126.12 99.5787C1128.41 102.012 1131.49 103.229 1135.36 103.229C1139.23 103.229 1142.31 102.012 1144.6 99.5787C1146.88 97.0954 1148.03 93.8422 1148.03 89.8192V85.3492H1162.18Z" fill="#EFEFEF"/>
<path d="M1063.01 115V17.405H1044.76V3.25H1095.42V17.405H1077.17V115H1063.01Z" fill="#EFEFEF"/>
<path d="M979.74 115L1002.98 3.25H1018.18L1041.2 115H1026.68L1022.65 94.289H998.365L994.268 115H979.74ZM1000.75 80.134H1020.27L1009.54 22.9925H1011.63L1000.75 80.134Z" fill="#EFEFEF"/>
<path d="M899.669 115L884.62 3.25H899.148L909.727 89.4465L908.013 89.372L922.541 3.25H934.61L949.137 89.372L947.424 89.4465L958.003 3.25H972.53L957.481 115H942.283L927.532 35.5085H929.842L914.867 115H899.669Z" fill="#EFEFEF"/>
<path d="M782.787 115V3.25H810.352C818.05 3.25 824.184 5.634 828.754 10.402C833.373 15.17 835.682 21.4777 835.682 29.325V45.3425C835.682 50.5078 834.614 55.0772 832.479 59.0505C830.393 62.9742 827.413 66.0535 823.539 68.2885L822.719 63.893C826.841 65.4327 830.02 67.8167 832.255 71.045C834.54 74.2733 835.682 78.1225 835.682 82.5925V115H821.527V82.5925C821.527 79.2152 820.509 76.5083 818.473 74.472C816.486 72.4357 813.779 71.4175 810.352 71.4175H796.942V115H782.787ZM796.942 57.2625H810.352C813.779 57.2625 816.486 56.1698 818.473 53.9845C820.509 51.7992 821.527 48.9185 821.527 45.3425V29.325C821.527 25.749 820.509 22.8683 818.473 20.683C816.486 18.4977 813.779 17.405 810.352 17.405H796.942V57.2625Z" fill="#EFEFEF"/>
<path d="M732.886 117.384C724.791 117.384 718.284 114.851 713.367 109.785C708.5 104.719 706.066 98.0639 706.066 89.8192V28.4312C706.066 20.1369 708.5 13.4815 713.367 8.46521C718.284 3.39921 724.791 0.866211 732.886 0.866211C741.032 0.866211 747.538 3.39921 752.405 8.46521C757.273 13.4815 759.706 20.1369 759.706 28.4312V89.8192C759.706 98.0639 757.273 104.719 752.405 109.785C747.538 114.851 741.032 117.384 732.886 117.384ZM732.886 103.229C736.76 103.229 739.84 102.012 742.124 99.5787C744.409 97.0954 745.551 93.8422 745.551 89.8192V28.4312C745.551 24.4082 744.409 21.1799 742.124 18.7462C739.84 16.2629 736.76 15.0212 732.886 15.0212C729.012 15.0212 725.933 16.2629 723.648 18.7462C721.364 21.1799 720.221 24.4082 720.221 28.4312V89.8192C720.221 93.8422 721.364 97.0954 723.648 99.5787C725.933 102.012 729.012 103.229 732.886 103.229Z" fill="#EFEFEF"/>
<path d="M645.864 115V3.25H691.309V17.405H660.019V59.87H687.286V74.025H660.019V115H645.864Z" fill="#EFEFEF"/>
<path d="M588.755 3.25V89.819C588.755 98.0637 586.322 104.719 581.454 109.785C576.587 114.851 570.081 117.384 561.935 117.384C553.84 117.384 547.333 114.851 542.416 109.785C537.549 104.719 535.115 98.0637 535.115 89.819V3.25H549.27V89.819C549.27 93.842 550.413 97.0952 552.697 99.5785C554.982 102.012 558.061 103.229 561.935 103.229C565.809 103.229 568.889 102.012 571.173 99.5785C573.458 97.0952 574.6 93.842 574.6 89.819V3.25H588.755Z" fill="#EFEFEF"/>
<path d="M485.959 117.384C477.863 117.384 471.357 114.851 466.44 109.785C461.572 104.719 459.139 98.0639 459.139 89.8192V28.4312C459.139 20.1369 461.572 13.4815 466.44 8.46521C471.357 3.39921 477.863 0.866211 485.959 0.866211C494.104 0.866211 500.61 3.39921 505.478 8.46521C510.345 13.4815 512.779 20.1369 512.779 28.4312V89.8192C512.779 98.0639 510.345 104.719 505.478 109.785C500.61 114.851 494.104 117.384 485.959 117.384ZM485.959 103.229C489.833 103.229 492.912 102.012 495.197 99.5787C497.481 97.0954 498.624 93.8422 498.624 89.8192V28.4312C498.624 24.4082 497.481 21.1799 495.197 18.7462C492.912 16.2629 489.833 15.0212 485.959 15.0212C482.085 15.0212 479.005 16.2629 476.721 18.7462C474.436 21.1799 473.294 24.4082 473.294 28.4312V89.8192C473.294 93.8422 474.436 97.0954 476.721 99.5787C479.005 102.012 482.085 103.229 485.959 103.229Z" fill="#EFEFEF"/>
<path d="M409.628 115V59.87L383.628 3.25H398.155L419.015 50.483H414.396L435.033 3.25H449.56L423.783 59.87V115H409.628Z" fill="#EFEFEF"/>
<path d="M330.316 115L306.476 59.0505L300.144 68.363V45.0445L328.901 3.25H344.173L316.087 44.7465L345.589 115H330.316ZM287.479 115V3.25H301.634V115H287.479Z" fill="#EFEFEF"/>
<path d="M209.923 115V3.25H221.47L253.282 88.1055L249.408 88.4035V3.25H262.818V115H251.27L219.459 30.1445L223.333 29.8465V115H209.923Z" fill="#EFEFEF"/>
<path d="M132.739 115L155.983 3.25H171.181L194.202 115H179.674L175.651 94.289H151.364L147.267 115H132.739ZM153.748 80.134H173.267L162.539 22.9925H164.625L153.748 80.134Z" fill="#EFEFEF"/>
<path d="M65.5791 115V3.25H79.7341V59.87H102.829V3.25H116.984V115H102.829V74.025H79.7341V115H65.5791Z" fill="#EFEFEF"/>
<path d="M18.4097 115V17.405H0.157227V3.25H50.8172V17.405H32.5647V115H18.4097Z" fill="#EFEFEF"/>
</svg>
