<svg width="32" height="32" viewBox="0 0 32 32" fill="none" xmlns="http://www.w3.org/2000/svg">
<g clip-path="url(#clip0_160_355)">
<path d="M9.37379 0.111931C7.67112 0.191931 6.50845 0.463931 5.49378 0.862598C4.42674 1.2668 3.4604 1.89829 2.66178 2.71326C1.85018 3.51408 1.22235 4.48176 0.821785 5.54926C0.428451 6.56793 0.160451 7.73326 0.0857846 9.4346C0.0111179 11.1359 -0.00621545 11.6853 0.00178455 16.0306C0.00978455 20.3759 0.0297846 20.9199 0.112451 22.6266C0.193785 24.3293 0.464451 25.4919 0.863118 26.5079C1.27378 27.5599 1.82312 28.4506 2.71378 29.3386C3.51538 30.1505 4.48399 30.7784 5.55245 31.1786C6.56979 31.5719 7.73379 31.8399 9.43645 31.9146C11.1405 31.9893 11.6885 32.0066 16.0325 31.9986C20.3765 31.9906 20.9231 31.9706 22.6285 31.8893C24.3351 31.8093 25.4911 31.5359 26.5085 31.1386C27.575 30.7342 28.5409 30.1027 29.3391 29.2879C30.151 28.4863 30.7789 27.5177 31.1791 26.4493C31.5725 25.4319 31.8405 24.2679 31.9138 22.5666C31.9885 20.8599 32.0071 20.3133 31.9978 15.9693C31.9898 11.6253 31.9711 11.0799 31.8898 9.37327C31.8098 7.6666 31.5378 6.50926 31.1378 5.49193C30.7338 4.42548 30.1028 3.45962 29.2885 2.66126C28.4872 1.84949 27.5191 1.22166 26.4511 0.821265C25.4324 0.429265 24.2698 0.159931 22.5658 0.0879313C20.8631 0.0119313 20.3151 -0.00806866 15.9698 -6.86581e-05C11.6245 0.00793134 11.0805 0.0279313 9.37379 0.111931ZM9.56045 29.0359C8.00045 28.9693 7.15378 28.7093 6.58978 28.4919C5.89373 28.2376 5.26392 27.8297 4.74712 27.2986C4.21425 26.784 3.8041 26.156 3.54712 25.4613C3.32712 24.8973 3.06312 24.0506 2.99112 22.4906C2.91112 20.8053 2.89512 20.2986 2.88445 16.0266C2.87645 11.7546 2.89245 11.2493 2.96578 9.5626C3.03245 8.00393 3.29378 7.15593 3.50978 6.59193C3.79778 5.84393 4.14578 5.31193 4.70312 4.74926C5.21808 4.21623 5.84654 3.80607 6.54179 3.54926C7.10579 3.32926 7.95112 3.06793 9.51112 2.99326C11.1978 2.91326 11.7031 2.89726 15.9751 2.8866C20.2458 2.8786 20.7524 2.8946 22.4418 2.96926C23.9991 3.03593 24.8471 3.2946 25.4111 3.51326C26.1578 3.80126 26.6911 4.1466 27.2538 4.7066C27.8165 5.2666 28.1618 5.79593 28.4538 6.54393C28.6738 7.1066 28.9365 7.95193 29.0098 9.51327C29.0898 11.1999 29.1084 11.7066 29.1165 15.9773C29.1231 20.2479 29.1084 20.7546 29.0351 22.4413C28.9671 24.0013 28.7085 24.8479 28.4911 25.4146C28.2031 26.1613 27.8551 26.6946 27.2965 27.2546C26.7819 27.7875 26.1539 28.1976 25.4591 28.4546C24.8965 28.6746 24.0485 28.9373 22.4911 29.0119C20.8031 29.0919 20.2978 29.1079 16.0245 29.1173C11.7511 29.1266 11.2485 29.1079 9.56045 29.0359ZM22.6045 7.44793C22.605 7.82773 22.7181 8.19884 22.9296 8.51431C23.1411 8.82979 23.4414 9.07546 23.7925 9.22026C24.1436 9.36505 24.5298 9.40246 24.9021 9.32775C25.2745 9.25304 25.6164 9.06957 25.8845 8.80055C26.1525 8.53152 26.3348 8.18903 26.4082 7.8164C26.4817 7.44377 26.4429 7.05773 26.2969 6.70712C26.1509 6.35651 25.9042 6.05709 25.588 5.84671C25.2717 5.63634 24.9002 5.52447 24.5205 5.52526C24.0115 5.52632 23.5237 5.72944 23.1644 6.08998C22.8052 6.45051 22.6037 6.93895 22.6045 7.44793ZM7.78579 16.0159C7.79003 18.1948 8.65964 20.2827 10.2033 21.8204C11.747 23.358 13.8383 24.2195 16.0171 24.2153C18.196 24.211 20.2839 23.3414 21.8215 21.7977C23.3592 20.2541 24.2207 18.1628 24.2165 15.9839C24.185 13.8231 23.3035 11.7616 21.7628 10.2461C20.2222 8.7306 18.1464 7.88317 15.9853 7.88738C13.8242 7.89159 11.7518 8.7471 10.217 10.2686C8.68228 11.79 7.80878 13.855 7.78579 16.0159ZM10.6671 16.0106C10.665 14.9558 10.9757 13.924 11.56 13.0458C12.1443 12.1675 12.9759 11.4823 13.9496 11.0767C14.9233 10.6711 15.9955 10.5633 17.0305 10.767C18.0654 10.9707 19.0168 11.4768 19.7641 12.2212C20.5115 12.9656 21.0213 13.9148 21.2292 14.949C21.4371 15.9831 21.3336 17.0557 20.9319 18.0311C20.5302 19.0064 19.8482 19.8407 18.9724 20.4285C18.0965 21.0163 17.066 21.3312 16.0111 21.3333C15.3107 21.3347 14.6169 21.1981 13.9693 20.9314C13.3217 20.6646 12.733 20.273 12.2368 19.7787C11.7405 19.2845 11.3465 18.6973 11.0772 18.0508C10.8079 17.4042 10.6685 16.711 10.6671 16.0106Z" fill="black"/>
</g>
<defs>
<clipPath id="clip0_160_355">
<rect width="32" height="32" fill="white"/>
</clipPath>
</defs>
</svg>
