<svg width="32" height="32" viewBox="0 0 32 32" fill="none" xmlns="http://www.w3.org/2000/svg">
<g clip-path="url(#clip0_192_748)">
<path d="M9.37379 0.112175C7.67112 0.192175 6.50845 0.464176 5.49378 0.862842C4.42674 1.26704 3.4604 1.89853 2.66178 2.71351C1.85018 3.51433 1.22235 4.482 0.821785 5.54951C0.428451 6.56818 0.160451 7.73351 0.0857846 9.43484C0.0111179 11.1362 -0.00621545 11.6855 0.00178455 16.0308C0.00978455 20.3762 0.0297846 20.9202 0.112451 22.6268C0.193785 24.3295 0.464451 25.4922 0.863118 26.5082C1.27378 27.5602 1.82312 28.4508 2.71378 29.3388C3.51538 30.1508 4.48399 30.7786 5.55245 31.1788C6.56978 31.5722 7.73379 31.8402 9.43645 31.9148C11.1405 31.9895 11.6885 32.0068 16.0325 31.9988C20.3765 31.9908 20.9231 31.9708 22.6285 31.8895C24.3351 31.8095 25.4911 31.5362 26.5085 31.1388C27.575 30.7345 28.5409 30.103 29.3391 29.2882C30.151 28.4866 30.7789 27.518 31.1791 26.4495C31.5725 25.4322 31.8405 24.2682 31.9138 22.5668C31.9885 20.8602 32.0071 20.3135 31.9978 15.9695C31.9898 11.6255 31.9711 11.0802 31.8898 9.37351C31.8098 7.66684 31.5378 6.50951 31.1378 5.49218C30.7338 4.42573 30.1028 3.45987 29.2885 2.66151C28.4872 1.84974 27.5191 1.2219 26.4511 0.821509C25.4325 0.429509 24.2698 0.160175 22.5658 0.0881755C20.8631 0.0121755 20.3151 -0.00782452 15.9698 0.000175482C11.6245 0.00817548 11.0805 0.0281755 9.37379 0.112175ZM9.56045 29.0362C8.00045 28.9695 7.15378 28.7095 6.58978 28.4922C5.89373 28.2378 5.26392 27.83 4.74712 27.2988C4.21425 26.7843 3.8041 26.1563 3.54712 25.4615C3.32712 24.8975 3.06312 24.0508 2.99112 22.4908C2.91112 20.8055 2.89512 20.2988 2.88445 16.0268C2.87645 11.7548 2.89245 11.2495 2.96578 9.56284C3.03245 8.00418 3.29378 7.15618 3.50978 6.59218C3.79778 5.84418 4.14578 5.31218 4.70312 4.74951C5.21808 4.21647 5.84654 3.80631 6.54179 3.54951C7.10579 3.32951 7.95112 3.06818 9.51112 2.99351C11.1978 2.91351 11.7031 2.89751 15.9751 2.88684C20.2458 2.87884 20.7524 2.89484 22.4418 2.96951C23.9991 3.03618 24.8471 3.29484 25.4111 3.51351C26.1578 3.80151 26.6911 4.14684 27.2538 4.70684C27.8165 5.26684 28.1618 5.79618 28.4538 6.54418C28.6738 7.10684 28.9365 7.95218 29.0098 9.51351C29.0898 11.2002 29.1085 11.7068 29.1165 15.9775C29.1231 20.2482 29.1084 20.7548 29.0351 22.4415C28.9671 24.0015 28.7085 24.8482 28.4911 25.4148C28.2031 26.1615 27.8551 26.6948 27.2965 27.2548C26.7819 27.7877 26.1539 28.1979 25.4591 28.4548C24.8965 28.6748 24.0485 28.9375 22.4911 29.0122C20.8031 29.0922 20.2978 29.1082 16.0245 29.1175C11.7511 29.1268 11.2485 29.1082 9.56045 29.0362ZM22.6044 7.44818C22.605 7.82797 22.7181 8.19908 22.9296 8.51456C23.1411 8.83003 23.4414 9.07571 23.7925 9.2205C24.1436 9.36529 24.5298 9.4027 24.9021 9.32799C25.2745 9.25328 25.6164 9.06981 25.8845 8.80079C26.1525 8.53177 26.3348 8.18928 26.4082 7.81664C26.4817 7.44401 26.4429 7.05797 26.2969 6.70737C26.1509 6.35676 25.9042 6.05733 25.588 5.84696C25.2717 5.63658 24.9002 5.52472 24.5205 5.52551C24.0115 5.52657 23.5237 5.72969 23.1644 6.09022C22.8052 6.45075 22.6037 6.93919 22.6044 7.44818ZM7.78579 16.0162C7.79003 18.195 8.65964 20.2829 10.2033 21.8206C11.747 23.3583 13.8383 24.2198 16.0171 24.2155C18.196 24.2113 20.2839 23.3417 21.8215 21.798C23.3592 20.2543 24.2207 18.163 24.2165 15.9842C24.185 13.8233 23.3035 11.7618 21.7628 10.2463C20.2222 8.73085 18.1464 7.88341 15.9853 7.88762C13.8242 7.89183 11.7518 8.74734 10.217 10.2688C8.68228 11.7903 7.80878 13.8552 7.78579 16.0162ZM10.6671 16.0108C10.665 14.956 10.9757 13.9242 11.56 13.046C12.1443 12.1678 12.9759 11.4825 13.9496 11.0769C14.9233 10.6713 15.9955 10.5635 17.0305 10.7673C18.0654 10.971 19.0168 11.477 19.7641 12.2214C20.5115 12.9658 21.0213 13.9151 21.2292 14.9492C21.4371 15.9834 21.3336 17.056 20.9319 18.0313C20.5302 19.0066 19.8482 19.841 18.9724 20.4288C18.0965 21.0165 17.0659 21.3314 16.0111 21.3335C15.3107 21.3349 14.6169 21.1983 13.9693 20.9316C13.3217 20.6649 12.733 20.2732 12.2368 19.779C11.7405 19.2847 11.3465 18.6975 11.0772 18.051C10.8079 17.4045 10.6685 16.7112 10.6671 16.0108Z" fill="#333333"/>
</g>
<defs>
<clipPath id="clip0_192_748">
<rect width="32" height="32" fill="white"/>
</clipPath>
</defs>
</svg>
