<svg width="410" height="34" viewBox="0 0 410 34" fill="none" xmlns="http://www.w3.org/2000/svg">
<path d="M398.854 12.4191C398.854 13.1571 398.813 13.9771 398.772 14.8381H408.12V18.9381H404.963V33.1241H400.043V18.9381H398.485C398.116 23.0791 397.501 27.6711 396.845 31.2381L392.253 30.6231C393.073 25.0471 393.77 15.3711 393.893 9.54911C398.444 7.08911 401.929 4.91611 405.988 1.96411L409.063 7.54011C405.66 9.34411 402.462 10.8201 398.854 12.4191ZM379.174 3.07111H392.95V7.82711H379.174V3.07111ZM383.397 31.4431L378.026 30.8281C378.723 23.6941 378.846 18.6511 378.969 9.63111L392.171 9.67211V19.8401L384.668 19.7991C384.422 24.3501 384.135 26.5231 383.397 31.4431ZM387.333 13.7721H383.971V15.7401H387.333V13.7721Z" fill="#333333"/>
<path d="M364.842 25.0471H370.254V28.9831H364.76L364.678 32.9601H358.692L359.061 14.3051H357.831C357.093 15.9861 356.273 17.6261 355.453 19.2251L349.385 17.5031C351.558 12.5421 353.239 7.3761 354.428 1.9231L361.603 4.2191C361.193 5.5721 360.742 6.9251 360.291 8.2371H370.172V14.3051H365.047L364.965 17.8721H370.213V22.2181H364.883L364.842 25.0471ZM344.875 4.7111L350.123 8.3191C349.057 10.1641 347.704 12.2961 346.228 14.4281L348.647 14.3461V30.7461L343.112 30.8281L342.866 19.3481L341.595 21.1111L336.757 17.7491C338.643 15.1661 343.112 8.1551 344.875 4.7111Z" fill="#333333"/>
<path d="M325.042 28.573L325.862 3.56299H331.438L330.29 33.493L321.065 33.042V28.409L325.042 28.573ZM315.325 20.988H310.405V22.792H316.76L316.227 32.55L311.676 32.181L311.881 28.614L312.988 28.696L313.07 26.81H310.405V32.591H305.731V26.81H303.64V32.14L299.499 32.263L299.376 22.792H305.731V20.988H299.622V15.658H305.731V13.403H303.435C303.353 13.854 303.271 14.305 303.148 14.715L298.269 14.346C298.72 11.066 299.007 7.37599 299.048 4.09599L304.624 4.58799C304.583 5.53099 304.501 6.55599 304.378 7.53999H305.731V3.80899H310.405V7.53999H315.325V13.403H310.405V15.658H315.325V20.988ZM318.564 6.96599H323.73L323.32 24.678L318.277 24.514L318.564 6.96599Z" fill="#333333"/>
<path d="M279.026 6.09595V16.3199C283.01 16.8479 286.754 17.2319 290.21 17.4719L289.922 23.0879C288.914 23.1359 287.906 23.1359 286.898 23.1359C284.258 23.1359 281.666 23.0399 279.026 22.7999V32.5439H272.882V6.09595H279.026Z" fill="#333333"/>
<path d="M263.272 28.08L258.376 32.784C255.544 30.864 253.144 28.752 250.264 26.016C247.24 28.656 244.072 31.152 241.096 33.024L237.304 28.848C243.64 23.664 248.68 18.576 252.328 13.536L238.168 13.584L238.072 7.87198L260.632 7.82397V14.4C259.096 16.8 256.936 19.44 254.44 21.984C256.792 23.952 259.336 25.728 263.272 28.08Z" fill="#333333"/>
<path d="M226.309 12.576L205.237 12.624L205.141 6.91201L226.213 6.86401L226.309 12.576ZM216.469 33.072L212.725 29.376C216.229 26.256 218.245 23.904 220.069 20.784L203.509 20.832L203.413 15.216L227.701 15.168V22.752C222.853 28.128 219.925 30.624 216.469 33.072Z" fill="#333333"/>
<path d="M189.48 5.52002L193.8 11.712C191.736 13.296 188.328 15.168 184.488 17.088H186.36V32.544H180.456V19.008C177.768 20.256 175.032 21.456 172.632 22.464L169.944 17.664C177 13.92 182.952 10.08 189.48 5.52002Z" fill="#333333"/>
<path d="M144.041 5.56812L155.801 7.10412L154.937 11.7121L143.561 10.7521L144.041 5.56812ZM156.089 25.3921L160.841 27.6961C158.633 31.1041 156.089 32.6881 153.305 32.6881C151.241 32.6881 149.081 31.8241 146.921 30.1441L143.657 32.9761L139.673 29.5681L151.673 18.5761L139.481 18.7201L139.241 13.5361H159.209L159.065 19.5841L151.001 26.5921C151.721 27.1681 152.345 27.4561 152.969 27.4561C153.929 27.4561 154.889 26.7841 156.089 25.3921Z" fill="#333333"/>
<path d="M109.412 30.1441C107.444 25.8721 105.908 15.6481 105.668 10.6081L111.572 10.4641C111.86 14.8801 112.676 21.5521 113.396 23.6641C114.404 23.4241 115.508 23.0401 117.044 22.6561L118.532 27.7441C116.228 28.8481 112.484 29.7121 109.412 30.1441ZM129.572 26.6401L124.148 27.1201C123.86 20.9761 123.524 17.5201 122.564 11.5201L128.756 10.7041C129.236 15.3601 129.62 19.4401 129.62 23.9521C129.62 24.8161 129.62 25.7281 129.572 26.6401Z" fill="#333333"/>
<path d="M83.8201 8.30396C92.3161 8.30396 96.5401 13.056 96.5401 19.104C96.5401 23.424 94.4281 28.32 90.2521 32.64L85.5961 29.712C88.4761 26.256 90.2521 22.56 90.2521 19.632C90.2521 17.184 89.0041 15.264 86.1241 14.448C85.8841 22.416 84.3481 29.328 76.8601 28.752C72.4921 28.416 69.9961 24.432 69.9961 20.112C69.9961 14.544 74.1241 8.30396 83.8201 8.30396ZM77.5321 23.328C79.7401 23.328 80.1241 19.536 80.3161 14.352C76.8121 15.216 75.4681 17.952 75.4681 20.208C75.4681 21.936 76.2841 23.328 77.5321 23.328Z" fill="#333333"/>
<path d="M62.1333 0L62.5653 6.336L58.9653 6.72L58.2933 0.336L62.1333 0ZM57.0933 0.527998L57.7653 6.816L54.0693 7.344L52.9653 1.104L57.0933 0.527998ZM60.7893 9.168L60.8853 14.4H52.2453L52.4373 16.608H58.7253V21.696H52.8693L53.0613 23.712L47.9253 24.48L47.5893 21.696H36.7413V16.608H47.0133L46.7253 14.448H36.1653L36.0693 9.216H46.1013L45.7653 6.144L51.4293 5.52L51.7653 9.168H60.7893ZM39.6693 28.8L42.3093 23.952C45.5733 25.92 50.2293 27.408 53.6853 27.936L52.0053 33.024C46.9173 32.352 44.0853 31.584 39.6693 28.8Z" fill="#333333"/>
<path d="M20.544 6.28801L20.064 9.93601C24.768 10.752 26.928 13.872 26.928 17.136C26.928 21.312 23.424 25.68 17.232 25.68C16.704 25.68 16.128 25.68 15.504 25.584V20.88C19.536 21.072 21.648 19.344 21.648 17.712C21.648 16.656 20.88 15.696 19.344 15.264L18.864 18.72L13.872 18.24L14.112 15.312L11.328 15.792L13.632 31.92L7.824 32.64L5.424 16.752L1.008 17.52L0 12.384L4.656 11.616L3.888 6.38401L9.936 5.76001L10.608 10.608L14.544 9.98401H14.592L14.928 5.90401L20.544 6.28801Z" fill="#333333"/>
</svg>
