<svg width="27" height="32" viewBox="0 0 27 32" fill="none" xmlns="http://www.w3.org/2000/svg">
<path d="M17.5833 1.78955H4.83333C4.08189 1.78955 3.36122 2.08806 2.82986 2.61941C2.29851 3.15077 2 3.87144 2 4.62288V27.2896C2 28.041 2.29851 28.7617 2.82986 29.293C3.36122 29.8244 4.08189 30.1229 4.83333 30.1229H21.8333C22.5848 30.1229 23.3054 29.8244 23.8368 29.293C24.3682 28.7617 24.6667 28.041 24.6667 27.2896V8.87288L17.5833 1.78955Z" stroke="#333333" stroke-width="3" stroke-linecap="round" stroke-linejoin="round"/>
<path d="M16.167 1.78955V7.45622C16.167 8.20766 16.4655 8.92833 16.9969 9.45969C17.5282 9.99104 18.2489 10.2896 19.0003 10.2896H24.667" stroke="#333333" stroke-width="3" stroke-linecap="round" stroke-linejoin="round"/>
</svg>
