<svg width="133" height="36" viewBox="0 0 133 36" fill="none" xmlns="http://www.w3.org/2000/svg">
<path d="M17.783 31.7636L12.059 35.8446L0.24 20.7396L11.37 5.47558L18.366 10.0866L9.409 21.0576L17.783 31.7636ZM41.7351 35.5166C39.4471 35.5166 37.3151 34.9966 35.5471 34.1646L37.1071 29.1726C38.7191 29.6926 39.8631 29.9526 41.7871 30.1086C42.3071 30.1606 42.8271 30.1606 43.2951 30.1606C47.5591 30.1606 49.4831 28.5486 49.4831 26.9886C49.4831 25.4286 47.6111 23.9206 44.2831 23.9206C41.6831 23.9206 38.1991 24.8566 33.9351 27.3526L30.9711 22.0486L44.2311 14.1966L32.6351 14.3006L32.5311 8.73658L53.9031 8.63258L53.7471 15.2366L46.3631 18.9286C46.6751 18.9286 47.0391 18.8766 47.3511 18.8766C52.8631 18.8766 56.2951 22.7246 56.2951 26.7806C56.2951 31.2526 52.0311 35.8806 41.7351 35.5166ZM87.8355 6.81258L87.3155 10.7646C92.4115 11.6486 94.7515 15.0286 94.7515 18.5646C94.7515 23.0886 90.9555 27.8206 84.2475 27.8206C83.6755 27.8206 83.0515 27.8206 82.3755 27.7166V22.6206C86.7435 22.8286 89.0315 20.9566 89.0315 19.1886C89.0315 18.0446 88.1995 17.0046 86.5355 16.5366L86.0155 20.2806L80.6075 19.7606L80.8675 16.5886L77.8515 17.1086L80.3475 34.5806L74.0555 35.3606L71.4555 18.1486L66.6715 18.9806L65.5795 13.4166L70.6235 12.5846L69.7915 6.91658L76.3435 6.24058L77.0715 11.4926L81.3355 10.8166H81.3875L81.7515 6.39658L87.8355 6.81258ZM132.248 0.67358L132.707 7.40558L128.882 7.81358L128.168 1.03058L132.248 0.67358ZM126.893 1.23458L127.607 7.91558L123.68 8.47658L122.507 1.84658L126.893 1.23458ZM130.82 10.4146L130.922 15.9736H121.742L121.946 18.3196H128.627V23.7256H122.405L122.609 25.8676L117.152 26.6836L116.795 23.7256H105.269V18.3196H116.183L115.877 16.0246H104.657L104.555 10.4656H115.214L114.857 7.20158L120.875 6.53858L121.232 10.4146H130.82ZM108.38 31.2736L111.185 26.1226C114.653 28.2136 119.6 29.7946 123.272 30.3556L121.487 35.7616C116.081 35.0476 113.072 34.2316 108.38 31.2736Z" fill="black"/>
</svg>
